<?xml version="1.0" encoding="utf-8"?>
<!-- Generator: Adobe Illustrator 22.1.0, SVG Export Plug-In . SVG Version: 6.00 Build 0)  -->
<svg version="1.1" id="Layer_1" xmlns="http://www.w3.org/2000/svg" xmlns:xlink="http://www.w3.org/1999/xlink" x="0px" y="0px"
	 viewBox="0 0 640 360" style="enable-background:new 0 0 640 360;" xml:space="preserve">
<style type="text/css">
	.st0{fill-rule:evenodd;clip-rule:evenodd;fill:#FFFFFF;}
	.st1{fill:#663714;}
	.st2{fill:#03A550;}
	.st3{fill-rule:evenodd;clip-rule:evenodd;fill:#73BC44;}
	.st4{fill-rule:evenodd;clip-rule:evenodd;fill:#663714;}
	.st5{fill-rule:evenodd;clip-rule:evenodd;fill:url(#SVGID_1_);}
	.st6{fill-rule:evenodd;clip-rule:evenodd;fill:url(#SVGID_2_);}
	.st7{fill-rule:evenodd;clip-rule:evenodd;fill:url(#SVGID_3_);}
</style>
<g>
	<g>
		<path class="st0" d="M330.3,159.1c-0.2,0-0.4-0.1-0.6-0.2l-0.7-0.6c-0.3-0.2-0.4-0.6-0.2-0.9c0.1-0.3,0.4-0.6,0.8-0.6h6.2v-21.6
			c0-1.7,0.5-3,1.4-3.9c0.9-0.9,2.5-1.4,5-1.7c0,0,0.1,0,0.1,0c0.2,0,0.5,0.1,0.6,0.3c0.2,0.2,0.3,0.5,0.2,0.7l-0.1,0.5
			c-0.1,0.4-0.4,0.7-0.8,0.7c-3.6,0.4-4,2.2-4,3.5v22.9c0,0.5-0.4,0.9-0.9,0.9H330.3z"/>
		<path class="st0" d="M336.6,157.6h-7l0.7,0.6h7.1v-22.9c0-2.6,1.6-4,4.7-4.3l0.1-0.5c-2.2,0.2-3.7,0.7-4.5,1.4
			c-0.7,0.8-1.1,1.9-1.1,3.3V157.6z"/>
		<path class="st0" d="M358.1,155.7c-0.1,0-0.2,0-0.3,0c-1.6-0.5-2.8-1.2-3.6-1.9c-0.9-0.8-1.4-2-1.4-3.4v-17.7
			c0-0.3,0.1-0.5,0.3-0.7l3.2-2.4c0.1-0.1,0.3-0.2,0.5-0.2c0.1,0,0.3,0,0.4,0.1l0.6,0.3c0.3,0.1,0.5,0.4,0.5,0.7
			c0,0.3-0.1,0.6-0.4,0.8l-2.7,1.9v16.5c0,1,0.2,1.8,0.7,2.4c0.3,0.5,1.1,1.2,3,2c0.4,0.2,0.6,0.6,0.5,1c-0.1,0.4-0.4,0.7-0.8,0.7
			H358.1z"/>
		<path class="st0" d="M353.6,150.3c0,1.2,0.4,2.2,1.1,2.8c0.7,0.7,1.8,1.2,3.3,1.7h0.5c-1.7-0.7-2.8-1.5-3.3-2.3
			c-0.6-0.8-0.8-1.8-0.8-2.9v-17l3.1-2.1l-0.6-0.3l-3.2,2.4V150.3z"/>
		<path class="st0" d="M421.1,137.8c-0.1,0-0.2,0-0.3-0.1l-0.6-0.2c-0.2-0.1-0.4-0.3-0.5-0.5c-0.1-0.2-0.1-0.5,0.1-0.7
			c1.7-3.1,3.2-5.3,4.6-6.5c0.2-0.1,0.4-0.2,0.6-0.2c0.2,0,0.4,0.1,0.6,0.2l0.4,0.3c0.2,0.2,0.3,0.4,0.3,0.6c0,0.2-0.1,0.5-0.3,0.6
			c-1.1,1.1-2.5,3.1-4.1,5.9C421.7,137.6,421.4,137.8,421.1,137.8z"/>
		<path class="st0" d="M421.1,136.9c1.6-2.9,3-5,4.2-6.2l-0.4-0.3c-1.3,1.2-2.8,3.2-4.5,6.3L421.1,136.9z"/>
		<path class="st0" d="M385,155.8c-0.3,0-0.5-0.1-0.7-0.3c-0.2-0.2-0.2-0.6-0.1-0.9c0.1-0.4,0.4-0.6,0.8-0.6c0,0,0.1,0,0.1,0
			c0.4,0.1,0.7,0.4,0.7,0.8C385.9,155.3,385.5,155.8,385,155.8L385,155.8z"/>
		<path class="st0" d="M385,154.9C385,154.9,385,154.9,385,154.9C385,154.9,385,154.9,385,154.9z"/>
		<path class="st0" d="M373.6,170c-0.2,0-0.4-0.1-0.6-0.2c-0.3-0.2-0.4-0.6-0.3-1c0.1-0.3,0.4-0.5,0.8-0.5c0,0,0.1,0,0.1,0
			c0.3,0,0.6,0.2,0.7,0.4c0.1,0.2,0.1,0.5,0,0.7C374.3,169.8,373.9,170,373.6,170L373.6,170z"/>
		<path class="st0" d="M373.6,169.1C373.6,169.1,373.6,169.1,373.6,169.1C373.6,169.2,373.6,169.1,373.6,169.1z"/>
		<path class="st0" d="M372.1,169.9l-2.4-0.2c-1.4-0.1-3-0.2-4.4-0.3l-0.5,0c-2.1-0.2-3.7-0.3-5.2-0.6c-1.7-0.4-3.1-0.9-4.7-2
			c-1.1-0.7-2.3-1.5-3.4-2.4c-0.6-0.4-1.2-0.9-1.7-1.3c-0.8-0.6-1.5-1-2.2-1.5c-0.7-0.5-1.3-0.9-1.8-1.2c-1-0.7-1.4-1.3-1.6-1.6
			c-0.3-0.4-0.3-0.7-0.2-1c0.3-0.6,0.6-0.6,2.3-0.6c0.7,0,1.6-0.1,2.7-0.1l-0.1-0.1c-0.3-0.3-0.4-0.7-0.2-1.1c0,0,0.1-0.1,0.1-0.1
			c-2.3-1.4-3.4-3.6-3.4-6.4v-16.5l-4.1-2.6c-0.3-0.2-0.5-0.6-0.4-1c0.1-0.4,0.4-0.6,0.8-0.6H356c0.4,0,0.7,0.2,0.8,0.6
			c0.1,0.4,0,0.7-0.3,1l-3.6,2.5v14c0,2.8,0.4,4.8,1.3,5.9c0.4,0.6,1.9,1.6,6.7,1.6c4.4,0,6-0.9,6.5-1.7c0.7-1,1.1-2.5,1.2-4.6
			c-0.1-0.4-0.3-0.8-0.4-1.3c-0.1-0.4-0.2-0.8-0.4-1.2c-0.2-0.5-0.3-1-0.5-1.5c-0.4-1.1-0.8-2.1-0.8-2.8c0-0.5,0.1-1,0.4-1.3
			c0.2-0.2,0.5-0.4,1.1-0.4c0.2,0,0.4,0,0.7,0.1v-6.9l-4.1-2.5c-0.3-0.2-0.5-0.6-0.4-1s0.4-0.6,0.8-0.6h12.1c0.4,0,0.7,0.3,0.8,0.6
			c0,0,0,0,0,0.1c0.1,0,0.1,0.1,0.2,0.1l0.4,0.3c0.2,0.2,0.3,0.4,0.3,0.7c0,0.3-0.1,0.5-0.4,0.7l-2.7,2v7.9c0.3,0.1,0.7,0.1,1,0.2
			c1.6,0.4,3.3,1,4.1,1.3c1.5,0.6,2.6,1.1,3.4,1.7c1,0.7,1.8,1.6,2.3,2.7c0.7,1.3,1,2.7,0.8,3.9c-0.2,1.3-0.8,2.6-1.2,3.4l-0.1,0.1
			c-0.2,0.4-0.3,0.6-0.3,0.6c-0.1,0.4-0.4,0.6-0.8,0.6c0,0-0.1,0-0.1,0c-0.4-0.1-0.7-0.4-0.7-0.8c0-0.1,0-0.2-0.1-0.4
			c-0.1-0.6-0.4-1.6-1.2-2.8c-0.7-1-1.7-2-2.8-2.7c0.6,0.7,1,1.3,1.5,2l0.3,0.4c0.5,0.7,1,1.4,1.3,2.1c0.4,0.8,0.5,1.5,0.3,2.5
			c-0.1,0.8-0.4,1.8-0.7,2.3c-0.1,0.2-0.4,0.8-1,0.8l0,0c-0.3,0-0.5-0.1-0.7-0.3c-0.3-0.4-0.2-0.8-0.2-1l0-0.1
			c0.1-0.4,0.1-0.7-0.2-1c-0.5-0.4-1.6-0.8-2.8-1.3c-0.5-0.2-0.9-0.4-1.4-0.5c-0.6-0.3-1.3-0.6-1.9-0.9c-0.6,1.3-1.4,2.3-2.6,3.1
			c-1,0.7-2.2,1.3-3.7,1.7c0.6,0.3,1.2,0.8,1.9,1.3c1.7,1.3,3.4,3,4.6,4.2c1,1,1,1,1.1,1.3c0.1,0.2,0,0.5-0.1,0.7
			c-0.2,0.3-0.4,0.4-0.7,0.4c-0.2,0-0.3,0-1.2-0.4c-0.9-0.4-3-1.2-4.7-2l-0.2-0.1c0.3,0.2,0.7,0.5,1,0.8c1.3,1.1,2.5,2.3,3.2,3
			l0.2,0.2c0.3,0.3,0.4,0.4,0.5,0.5c0.3,0.2,0.4,0.6,0.3,1c-0.1,0.3-0.4,0.5-0.8,0.5C373.5,170,372.1,169.9,372.1,169.9z"/>
		<path class="st0" d="M381.1,151.6c-0.5-0.7-1.1-1.5-1.8-2.3c-0.7-0.8-1.5-1.6-2.3-2.1c-0.8-0.5-1.4-0.6-1.8-0.7
			c-0.3-0.1-0.3-0.1,0.4,0c0.8,0.1,2.3,0.2,3.9,1c1.6,0.8,3.2,2.2,4.1,3.6c0.9,1.3,1.2,2.5,1.3,3.1c0.1,0.4,0.1,0.5,0.1,0.6
			c0-0.1,0.1-0.3,0.3-0.8c0.4-0.7,1-2,1.2-3.3c0.2-1.3-0.2-2.4-0.7-3.4c-0.5-1-1.2-1.7-2.1-2.4c-0.9-0.6-1.9-1.1-3.2-1.6
			c-1.3-0.5-2.8-1-4-1.3c-0.6-0.1-1.2-0.2-1.7-0.3v-9.1l3.1-2.2l-0.4-0.3l-3.4,2.4v9.1c-0.3,0-0.5,0-0.8,0c-0.2,0-0.5,0-0.7,0v-9.4
			l4.4-2.7H365l4.5,2.7v8.6c-0.3-0.1-0.6-0.3-0.9-0.4c-0.7-0.2-1.3-0.2-1.2,0.7c0.1,0.9,0.8,2.6,1.3,4c0.3,1,0.5,1.9,0.8,2.7
			c-0.1,2.3-0.6,4-1.4,5.2c-1,1.4-3.4,2.1-7.2,2.1c-4,0-6.5-0.7-7.4-2c-1-1.3-1.4-3.4-1.4-6.4v-14.4l3.9-2.8h-14.2l4.5,2.8v17
			c0,5.2,4.5,7.8,13.5,7.8c0.2,0,0.4,0,0.6,0c3.6,0,6.3-0.4,8.1-1.2c1.8-0.8,2.9-1.8,3.4-3.1c0.2-0.5,0.4-1,0.5-1.7
			c0.2,0.1,0.4,0.3,0.6,0.4c0.3,0.2,0.6,0.4,0.9,0.6c-0.4,1.5-1.2,2.6-2.3,3.4c-1.5,1.2-3.9,2-7.3,2.4c0,0,0,0,0,0
			c-2.5-0.4-5.9-0.3-9.3-0.3c0,0,0,0,0,0c-1.1-0.2-2-0.4-2.7-0.6c-1.1-0.3-1.9-0.6-2.6-0.8l0.4,0.3c0.9,0.5,1.9,0.9,3,1.2
			c-2.7,0.1-5.1,0.2-6.5,0.2c-1.7,0.1-1.7,0.1-1.5,0.3c0.2,0.2,0.6,0.7,1.5,1.4c0.9,0.7,2.3,1.5,3.9,2.6c1.6,1.1,3.5,2.6,5.1,3.6
			c1.6,1,2.9,1.5,4.5,1.8c1.5,0.3,3.2,0.4,5.6,0.6c2.3,0.2,5.3,0.4,6.8,0.5c0.9,0.1,1.2,0.1,1.3,0.1c-0.1-0.1-0.2-0.2-0.6-0.5
			c-0.6-0.6-2-2-3.4-3.2c-1.4-1.2-2.9-2.1-4.5-2.7c-1.6-0.6-3.2-0.8-4.4-0.9c-1.2-0.1-2-0.1-2.3-0.1c-0.2,0,0.1-0.1,0.7-0.2
			c0.6-0.1,1.6-0.3,2.8-0.3c1.2,0,2.5,0.1,3.8,0.5c1.3,0.4,2.4,0.9,4.1,1.6c1.6,0.7,3.6,1.6,4.6,2c1,0.4,0.9,0.4,0.9,0.3
			c0,0,0,0-0.9-0.9c-0.9-0.9-2.8-2.8-4.5-4.1c-1.3-1-2.6-1.8-4.3-2.2c2.7-0.4,4.7-1.1,6.2-2.1c1.3-0.9,2.1-2.1,2.6-3.6
			c0.8,0.5,1.7,0.9,2.7,1.3c1.6,0.7,3.5,1.2,4.4,1.9c0.8,0.7,0.6,1.5,0.5,1.9c-0.1,0.4,0,0.4,0.2,0c0.2-0.4,0.5-1.4,0.6-2.1
			c0.1-0.7,0-1.3-0.3-2C382.1,153.1,381.6,152.4,381.1,151.6z"/>
		<path class="st0" d="M383,167.1c-0.3,0-0.7-0.2-0.8-0.5c-0.2-0.6,0.1-0.9,0.6-1.3c0.9-0.8,1.8-1.6,3-2.3c1.7-1.1,3.8-2.1,5.6-2.7
			c1.5-0.5,2.9-0.8,4.1-1.1c0.2-0.1,0.5-0.1,0.7-0.1l-0.3-0.2l0,0c-0.3,0-0.7,0.1-1,0.1c-1.6,0.2-2.9,0.5-4.5,1.2
			c-1.8,0.7-4.2,1.9-5.3,2.4c-1.2,0.6-1.2,0.6-1.5,0.6c-0.3,0-0.5-0.1-0.7-0.4c-0.2-0.2-0.2-0.6-0.1-0.8c0-0.1,0.1-0.4,0.5-1
			c0.3-0.5,0.8-1.3,1.9-2.5c0.8-1,2.1-2.6,3.7-3.7c1.7-1.3,3.5-2,4.4-2.3c1.3-0.5,2.2-0.6,3.6-0.6c0.4,0,0.8,0,1.2,0V134h-3.8
			c-3.2,0-4.5,0.3-5.1,0.5c-0.8,0.4-1.1,1.7-1.2,2.7c0,0.4-0.4,0.8-0.8,0.8h-0.9c-0.2,0-0.5-0.1-0.6-0.3c-0.2-0.2-0.2-0.4-0.2-0.6
			c0-0.3,0-0.5,0.1-0.8c-0.1,0.2-0.3,0.4-0.5,0.5c-0.1,0-0.2,0-0.3,0c-0.3,0-0.5-0.1-0.7-0.4l-4.6-6.5c-0.2-0.3-0.2-0.6-0.1-0.9
			c0.1-0.3,0.4-0.5,0.8-0.5h43.9c0.3,0,0.6,0.2,0.8,0.5c0.1,0.3,0.1,0.6-0.1,0.9l-4.6,6.5c-0.2,0.2-0.4,0.4-0.7,0.4
			c-0.1,0-0.2,0-0.3,0c-0.4-0.1-0.6-0.4-0.6-0.8c0-0.5,0-1-0.1-1.4c-0.1,0.1-0.2,0.2-0.3,0.2c-0.1,0.1-0.3,0.1-0.4,0.1
			c-0.2,0-0.4-0.1-0.5-0.2c-0.2-0.2-1.1-0.7-4.1-0.7h-5v18.3l0.2,0c0.9,0.2,1.8,0.4,2.8,0.6c1.7,0.3,3.5,0.5,5.5,0.8l0.7,0.1
			c2.3,0.3,5,0.6,6.3,0.8c1.4,0.2,1.9,0.3,2,1c0,0.1,0,0.7-0.7,0.9c-0.1,0-0.3,0.1-0.6,0.2l-1,0.2c-0.6,0.2-2.6,0.6-3.7,1
			c-0.7,0.3-1,0.5-1.4,0.9c-0.1,0.1-0.3,0.2-0.5,0.3c-0.6,0.4-1.3,0.9-2.2,1.5l-1.6,1.1c-1.3,0.8-2.8,1.8-4.1,2.5
			c-1.5,0.8-2.9,1.3-4.7,1.7c-2.2,0.5-4.7,0.8-7.9,0.9c-3.7,0.2-8.8,0.2-11.2,0.2H383z M387.1,133c-0.2,0.1-0.4,0.1-0.5,0.1
			c-0.8,0.3-1.2,1.2-1.2,2.9c0.2-1.1,0.5-1.9,1.1-2.4C386.6,133.3,386.9,133.1,387.1,133z"/>
		<path class="st0" d="M423.2,155.5c-1.3-0.2-4-0.5-6.3-0.8c-2.3-0.3-4.3-0.5-6.3-0.9c-1.3-0.2-2.5-0.5-3.7-0.8v-19.8h3.8h2
			c2.5,0,4.1,0.3,4.8,1v-0.1c-0.2-0.6-0.9-1-1.9-1.1c-1-0.1-2.6-0.2-4.9-0.2h-4.5v20.1c-0.4-0.1-0.7-0.1-1-0.2c-0.2,0-0.3,0-0.5-0.1
			v-21h4.7c2.7,0,4.7,0.1,6,0.2c1.2,0.1,2.1,0.5,2.8,1.1c0.6,0.6,0.9,1.7,0.9,3.1l4.6-6.5h-43.9l4.6,6.5c0-2.1,0.6-3.4,1.8-3.8
			c1.2-0.4,3.8-0.6,7.8-0.6h4.6v1.1h-4.6c-2.1,0-3.7,0.1-4.7,0.2c-1,0.2-1.8,0.6-2.4,1.2c-0.6,0.6-0.9,1.7-1,3.1h0.9
			c0.2-1.9,0.7-3,1.7-3.5c1-0.4,2.8-0.6,5.4-0.6h4.6v19.3c-0.7,0-1.4,0-2,0c-1.3,0.1-2.1,0.2-3.3,0.6c-1.2,0.4-2.7,1.1-4.1,2.2
			c-1.4,1.1-2.6,2.5-3.5,3.6c-0.9,1.1-1.5,1.9-1.8,2.4c-0.3,0.5-0.4,0.7-0.4,0.9c0,0.1,0,0.1,1.1-0.5c1.2-0.6,3.5-1.7,5.3-2.4
			c1.8-0.7,3.2-1,4.7-1.2c0.4-0.1,0.9-0.1,1.4-0.1l0.6,0.5h5.9c-0.9,0.2-2,0.4-2.8,0.5c-1.4,0.3-1.9,0.6-3.1,0.9
			c-1.2,0.3-3.1,0.6-5,1.3c-1.9,0.7-4,1.7-5.4,2.6c-1.5,0.9-2.4,1.8-2.8,2.2c-0.4,0.4-0.4,0.4-0.4,0.4c0,0,0,0,2.5,0
			c2.5,0,7.5,0,11.2-0.2c3.7-0.2,5.9-0.5,7.7-0.9c1.8-0.4,3-0.9,4.5-1.7c1.5-0.8,3.2-1.9,4.6-2.9c1.4-0.9,2.5-1.6,3.2-2.1
			c0.7-0.5,1.1-0.9,2.1-1.3c1-0.4,2.7-0.8,3.8-1.1c1-0.2,1.4-0.3,1.6-0.4C424.5,155.7,424.5,155.7,423.2,155.5z M399.5,157.8
			c1.5,0,3.1,0,4.1,0H398C398.5,157.8,399,157.8,399.5,157.8z"/>
		<path class="st0" d="M280.4,213.9c-56.5,0-102.4-23.5-102.4-52.5c0-23.2,28.9-43.3,72-50.1c0,0,0.1,0,0.1,0c0.4,0,0.8,0.3,0.8,0.7
			c0.1,0.5-0.2,0.9-0.7,1c-16.3,3.2-30.5,8.6-41.2,15.6h11.5c0.4,0,0.7,0.2,0.8,0.6c0,0,0.1,0,0.1,0c0.2,0,0.3,0,0.5,0.1l0.5,0.3
			c0.2,0.2,0.4,0.4,0.4,0.7c0,0.3-0.1,0.6-0.4,0.7l-2.7,1.9v8.6c0.9,0.1,2.4,0.1,4.3,0.2c3-0.1,4.5-0.2,5.3-0.3v-8.7l-3.9-2.5
			c-0.3-0.2-0.5-0.6-0.4-1c0.1-0.4,0.4-0.6,0.8-0.6h14.3c0.4,0,0.7,0.2,0.8,0.6c0.1,0.4,0,0.7-0.3,1l-3.6,2.5v21.2l3.5,2.3
			c0.3,0.2,0.5,0.6,0.4,1c-0.1,0.4-0.4,0.6-0.8,0.6h-14.3c-0.4,0-0.7-0.3-0.8-0.6c-0.1-0.4,0.1-0.8,0.4-1l4-2.3v-6.9
			c-1.1,0.1-2.9,0.2-5.4,0.3c-1.9-0.1-3.2-0.2-4.2-0.3v6.7l5.2,4c0.3,0.2,0.4,0.6,0.3,0.9c-0.1,0.3-0.4,0.6-0.8,0.6h-15.9
			c-0.2,0-0.4-0.1-0.5-0.2l-0.8-0.6c-0.2-0.2-0.3-0.4-0.3-0.7h-0.7c-0.4,0-0.7-0.3-0.8-0.6c-0.1-0.4,0.1-0.8,0.4-1l3.9-2.3v-7.4
			c-1,0-1.9,0.3-3,0.7c-0.1,0-0.2,0.1-0.3,0.1c-0.2,0-0.4-0.1-0.5-0.2l-0.4-0.3c-0.1-0.1-0.2-0.2-0.2-0.3c0,0,0,0-0.1,0
			c-0.2,0.1-0.3,0.2-0.5,0.2c-0.1,0-0.3,0-0.4-0.1c-0.3-0.2-0.5-0.5-0.4-0.9c0.3-1.8,1-3,2.2-3.5c0.9-0.4,2.1-0.6,3.6-0.6v-8.7
			l-3.4-2.2c-11.1,8.1-17,17.5-17,27.3c0,26.6,43,48.2,95.9,48.2c25.1,0,48.9-4.9,66.9-13.7c17.8-8.7,28.1-20.4,28.9-32.8
			c0-0.4,0.4-0.8,0.8-0.8c0,0,0,0,0,0c0.4,0,0.8,0.3,0.8,0.8c0,0.6,0.1,1.2,0.1,1.9C382.8,190.4,336.9,213.9,280.4,213.9z"/>
		<path class="st0" d="M285.2,206.9c-53.4,0-96.7-22-96.7-49c0-10.6,6.6-20.3,17.8-28.3l4.2,2.8v10c-1.9,0-3.2,0.2-4.1,0.6
			c-0.9,0.4-1.5,1.3-1.7,2.9c1.2-0.9,2.7-1.3,4.7-1.3h1.1v0.6h-0.4c-1.4,0-2.8,0.3-4.1,1l0.4,0.3c1.2-0.5,2.4-0.8,3.6-0.8h0.6v8.8
			l-4.4,2.5h14.2l-3.8-2.5v-9.8c1.7,0.2,4.1,0.4,7.4,0.5c3.5-0.1,5.6-0.3,6.2-0.5v0.9c-0.7,0.1-2.7,0.3-5.9,0.4
			c-2.9-0.1-5-0.3-6.2-0.4v8.9l4.7,3.4h-15l0.8,0.6h15.9l-5.6-4.2v-8.1c0.6,0.1,2.3,0.3,5,0.4c3.5-0.1,5.6-0.3,6.3-0.4v8.4l-4.4,2.5
			H240l-3.8-2.5v-22.1l4-2.7h-14.3l4.3,2.7v9.9c-0.7,0.2-2.7,0.4-6.2,0.5c-2.6-0.1-4.3-0.2-5.1-0.3v-9.8l3.1-2.1l-0.5-0.3l-3.4,2.4
			v9.8c-0.6-0.1-1.1-0.2-1.5-0.2v-9.9l4-2.7h-14.2c10.9-7.7,26-13.8,43.8-17.3c-41.3,6.5-71.3,26.1-71.3,49.3
			c0,28.5,45.5,51.6,101.6,51.6c56.1,0,101.6-23.1,101.6-51.6c0-0.6,0-1.2-0.1-1.9C380.1,185.8,337.5,206.9,285.2,206.9z"/>
		<path class="st0" d="M248.4,200.1c-0.1,0-0.2,0-0.3-0.1l-26.4-11.6c-0.3-0.1-0.5-0.4-0.5-0.8v-23.5c0-0.3,0.2-0.7,0.5-0.8
			l10.6-4.3h-4.1c-0.2,0-0.4-0.1-0.5-0.2l-0.8-0.6c-0.3-0.2-0.4-0.6-0.3-0.9s0.4-0.6,0.8-0.6h10.4l1.2-0.5l-1.8-1.3
			c-0.2-0.2-0.4-0.4-0.4-0.7v-21.8c0-0.3,0.1-0.5,0.3-0.7l3.3-2.4c0.1-0.1,0.3-0.2,0.5-0.2c0.2,0,0.3,0,0.5,0.1l0.5,0.3
			c0.2,0.2,0.4,0.4,0.4,0.7c0,0.3-0.1,0.6-0.4,0.7l-2.7,1.9v20.6l2.3,1.7l6-2.5v-22.6c0-0.3,0.2-0.7,0.5-0.8l26.4-10.8
			c0.1,0,0.2-0.1,0.3-0.1s0.2,0,0.3,0.1l26.4,10.8c0.3,0.1,0.5,0.4,0.5,0.8v22.6l3.7,1.5c0.2-0.2,0.4-0.4,0.6-0.5
			c1-1,1.6-1.9,1.6-2.8v-18.4l-4-2.5c-0.3-0.2-0.5-0.6-0.4-1s0.4-0.6,0.8-0.6H321c0.4,0,0.7,0.3,0.8,0.6c0,0,0,0,0,0.1l1.1-0.6
			c0.1-0.1,0.3-0.1,0.4-0.1c0.2,0,0.4,0.1,0.5,0.2l0.6,0.5c0.2,0.2,0.3,0.5,0.3,0.7c0,0.3-0.2,0.5-0.4,0.7l-3.2,1.8l10.1,13.4v-11.3
			c0-1.4-0.5-3.4-4.5-4.3c-0.4-0.1-0.7-0.5-0.7-0.9c0-0.4,0.4-0.8,0.8-0.8h14.2c0.4,0,0.8,0.3,0.8,0.8c0,0.4-0.3,0.8-0.7,0.9
			c-2.6,0.5-3.8,1-4.3,1.4c-0.6,0.4-0.9,1.7-0.9,3.5v21.5c0,0.5-0.4,0.9-0.9,0.9h-6.3c-0.3,0-0.5-0.1-0.7-0.3l-13.3-17.4v11.1
			c0,0.7,0.1,1.2,0.4,1.7c0.2,0.5,0.6,1,1.2,1.5c0.7,0.6,1.3,1.1,1.9,1.5l2.8,2c0.3,0.2,0.4,0.6,0.3,1c-0.1,0.4-0.4,0.6-0.8,0.6
			h-3.3l10.6,4.3c0.3,0.1,0.5,0.4,0.5,0.8v23.5c0,0.3-0.2,0.6-0.5,0.8L301.6,200c-0.1,0-0.2,0.1-0.3,0.1s-0.2,0-0.3-0.1l-26.1-11.5
			L248.7,200C248.6,200.1,248.5,200.1,248.4,200.1z M317.9,132.7L317.9,132.7c-0.2-0.2-0.2-0.4-0.2-0.6l-0.2,0.1L317.9,132.7z"/>
		<path class="st0" d="M248.4,153.4l-7,2.9l-3-2.3v-21.5l3.1-2.1l-0.5-0.3l-3.3,2.4v21.8l3.1,2.2l-2.8,1.1h-10.6l0.8,0.6h8.4
			l-14.6,5.9v23.5l26.4,11.6l26.4-11.6l26.4,11.6l26.4-11.6v-23.5l-14.6-5.9h7.6c-1.3-0.9-2.2-1.5-2.8-2c-0.7-0.4-1.3-0.9-2-1.6
			c-0.7-0.6-1.2-1.2-1.4-1.8c-0.3-0.6-0.5-1.3-0.5-2.1v-13.6l14.8,19.5h6.3v-21.5c0-2.2,0.4-3.6,1.3-4.2c0.9-0.6,2.4-1.2,4.6-1.6
			h-14.2c3.5,0.7,5.2,2.4,5.2,5.1v0.5v13.3l-12.2-16.2l4.1-2.3l-0.6-0.5l-4.8,2.7l13.6,17.5v2.1L316.2,132l4.8-2.5h-16.6l4.4,2.7
			V151c0,1-0.6,2.2-1.8,3.4c-0.3,0.3-0.7,0.6-1.1,0.9l-4.7-1.9v-23.2l-26.4-10.8l-26.4,10.8V153.4z M313.4,154.9
			c-0.9-0.7-1.4-2-1.5-3.9v-17l1.5,2.3v14.5c0,1.1,0.2,2,0.5,2.6c0.2,0.6,0.7,1.1,1.4,1.7c0.7,0.6,1.9,1.4,3.7,2.6h-7.3l-2.3-0.9
			h7.8C315.5,156.3,314.3,155.7,313.4,154.9z"/>
	</g>
	<g>
		<path class="st1" d="M219,145.9v8.1l5.6,4.2h-15.9l-0.8-0.6h15l-4.7-3.4v-8.9c1.2,0.1,3.3,0.3,6.2,0.4c3.2-0.1,5.1-0.3,5.9-0.4
			v-0.9c-0.6,0.2-2.7,0.4-6.2,0.5c-3.3-0.1-5.7-0.3-7.4-0.5v9.8l3.8,2.5h-14.2l4.4-2.5v-8.8h-0.6c-1.2,0-2.3,0.3-3.6,0.8l-0.4-0.3
			c1.3-0.7,2.7-1,4.1-1h0.4v-0.6h-1.1c-2,0-3.6,0.4-4.7,1.3c0.2-1.5,0.8-2.5,1.7-2.9c0.9-0.4,2.3-0.6,4.1-0.6v-10l-4.3-2.8h14.3
			l-4,2.7v9.9c0.4,0,0.9,0.1,1.5,0.2v-9.8l3.4-2.4l0.5,0.3l-3.1,2.1v9.8c0.8,0.1,2.5,0.2,5.1,0.3c3.5-0.1,5.5-0.3,6.2-0.5v-9.9
			l-4.3-2.7h14.3l-4,2.7v22.1l3.8,2.5h-14.3l4.4-2.5v-8.4c-0.7,0.1-2.8,0.3-6.3,0.4C221.3,146.2,219.7,146,219,145.9z M241.2,130.1
			l0.5,0.3l-3.1,2.1V154l5.6,4.2h-15.8l-0.8-0.6h15l-4.7-3.4v-21.8L241.2,130.1z"/>
		<path class="st1" d="M304.6,129.5h16.6l-4.8,2.5l15.9,19.8v-2.1l-13.6-17.5l4.8-2.7l0.6,0.5l-4.1,2.3l12.2,16.2v-13.3v-0.5
			c0-2.7-1.7-4.4-5.2-5.1h14.2c-2.2,0.4-3.8,0.9-4.6,1.6c-0.9,0.6-1.3,2-1.3,4.2v21.5H329l-14.8-19.5v13.6c0,0.8,0.2,1.5,0.5,2.1
			c0.2,0.6,0.7,1.2,1.4,1.8c0.7,0.6,1.3,1.2,2,1.6c0.6,0.4,1.5,1.1,2.8,2h-17.2l-0.6-0.6h16.1c-1.8-1.2-3-2-3.7-2.6
			c-0.7-0.5-1.2-1.1-1.4-1.7c-0.3-0.6-0.5-1.4-0.5-2.6v-14.5L312,134v17c0.1,1.9,0.6,3.2,1.5,3.9c0.9,0.8,2.1,1.3,3.7,1.8h-14.2
			c1.5-0.3,2.9-1.1,4.1-2.3c1.2-1.2,1.8-2.3,1.8-3.4v-18.9L304.6,129.5z M330.5,158.2l-0.7-0.6h7v-22.4c0-1.4,0.4-2.5,1.1-3.3
			c0.8-0.7,2.2-1.2,4.5-1.4l-0.1,0.5c-3.2,0.3-4.7,1.8-4.7,4.3v22.9H330.5z"/>
	</g>
	<g>
		<path class="st2" d="M341.9,129.6h14.2l-3.9,2.8v14.4c0,3,0.5,5.1,1.4,6.4c0.9,1.3,3.4,2,7.4,2c3.9,0,6.3-0.7,7.2-2.1
			c1-1.4,1.4-3.6,1.4-6.6v-14.1l-4.5-2.7h12.1l-4.4,2.7v15c-0.1,2.5-0.4,4.4-0.9,5.7c-0.5,1.3-1.6,2.3-3.4,3.1
			c-1.8,0.8-4.5,1.2-8.1,1.2c-0.2,0-0.4,0-0.6,0c-9,0-13.5-2.6-13.5-7.8v-17L341.9,129.6z M349.6,156.4c0.7,0.3,1.6,0.5,2.6,0.8
			c1,0.3,2.5,0.6,4.4,0.8c1,0.1,2.4,0.2,4.1,0.3c5.2-0.1,8.8-1,10.8-2.6c1.9-1.4,2.8-3.7,2.8-6.9v-16.1l3.4-2.4l0.4,0.3l-3.1,2.2
			v16.7c0,3.1-1,5.4-3.1,6.8c-2.1,1.5-5.4,2.3-10.1,2.4c-0.4,0-0.7,0-1,0c-4.8,0-8.4-0.7-10.9-2L349.6,156.4z M353.8,132.6l3.2-2.4
			l0.6,0.3l-3.1,2.1v17c0,1.1,0.3,2.1,0.8,2.9c0.6,0.8,1.7,1.6,3.3,2.3h-0.5c-1.5-0.5-2.6-1.1-3.3-1.7c-0.8-0.7-1.1-1.6-1.1-2.8
			V132.6z"/>
		<path class="st2" d="M404.9,131.7v22.8l3.8,2.5h-14.3l4.4-2.5v-21.3h-4.6c-2.7,0-4.5,0.2-5.4,0.6c-1,0.4-1.6,1.6-1.7,3.5h-0.9
			c0-1.5,0.4-2.5,1-3.1c0.6-0.6,1.4-1,2.4-1.2c1-0.1,2.6-0.2,4.7-0.2h4.6v-1.1h-4.6c-4,0-6.6,0.2-7.8,0.6c-1.2,0.4-1.8,1.7-1.8,3.8
			l-4.6-6.5h43.9l-4.6,6.5c0-1.5-0.3-2.5-0.9-3.1c-0.7-0.6-1.6-1-2.8-1.1c-1.3-0.1-3.3-0.2-6-0.2H404.9z M406.4,132.7h4.5
			c2.3,0,3.9,0.1,4.9,0.2c1,0.2,1.6,0.5,1.9,1.1v0.1c-0.7-0.7-2.2-1-4.8-1h-2h-3.8v21l5.7,4.2h-15.9l-0.8-0.6h15l-4.7-3.4V132.7z
			 M420.7,136.7c1.7-3,3.1-5.1,4.5-6.3l0.4,0.3c-1.2,1.2-2.6,3.2-4.2,6.2L420.7,136.7z"/>
	</g>
	<path class="st3" d="M367.5,141.3c0.1,0.9,0.8,2.6,1.3,4c0.5,1.4,0.7,2.6,1.3,3.7c0.6,1,1.6,1.9,2.8,2.7c1.2,0.8,2.6,1.6,4.2,2.2
		c1.6,0.7,3.5,1.2,4.4,1.9c0.8,0.7,0.6,1.5,0.5,1.9c-0.1,0.4,0,0.4,0.2,0c0.2-0.4,0.5-1.4,0.6-2.1c0.1-0.7,0-1.3-0.3-2
		c-0.3-0.6-0.8-1.4-1.4-2.1c-0.5-0.7-1.1-1.5-1.8-2.3c-0.7-0.8-1.5-1.6-2.3-2.1c-0.8-0.5-1.4-0.6-1.8-0.7c-0.3-0.1-0.3-0.1,0.4,0
		c0.8,0.1,2.3,0.2,3.9,1c1.6,0.8,3.2,2.2,4.1,3.6c0.9,1.3,1.2,2.5,1.3,3.1c0.1,0.6,0.1,0.7,0.1,0.7c0,0,0-0.1,0.4-0.8
		c0.4-0.7,1-2,1.2-3.3c0.2-1.3-0.2-2.4-0.7-3.4c-0.5-1-1.2-1.7-2.1-2.4c-0.9-0.6-1.9-1.1-3.2-1.6c-1.3-0.5-2.8-1-4-1.3
		c-1.3-0.3-2.3-0.4-3.2-0.4c-0.9,0-1.7,0-2.4-0.3c-0.8-0.2-1.6-0.7-2.3-0.9C368.1,140.4,367.4,140.4,367.5,141.3 M373.8,169.1
		c0,0,0.1,0-1.4-0.1c-1.5-0.1-4.5-0.4-6.8-0.5c-2.3-0.2-4.1-0.3-5.6-0.6c-1.5-0.3-2.9-0.9-4.5-1.8c-1.6-1-3.5-2.4-5.1-3.6
		c-1.6-1.1-3.1-2-3.9-2.6c-0.9-0.7-1.3-1.2-1.5-1.4c-0.2-0.2-0.2-0.2,1.5-0.3c1.7-0.1,5.1-0.2,8.5-0.2c3.4-0.1,6.8-0.1,9.3,0.3
		c2.5,0.4,4,1.2,5.8,2.5c1.7,1.3,3.6,3.2,4.5,4.1c0.9,0.9,0.9,0.9,0.9,0.9c0,0,0.1,0.1-0.9-0.3c-1-0.4-3-1.2-4.6-2
		c-1.6-0.7-2.8-1.3-4.1-1.6c-1.3-0.4-2.6-0.5-3.8-0.5c-1.2,0-2.2,0.2-2.8,0.3c-0.6,0.1-1,0.2-0.7,0.2c0.2,0,1,0,2.3,0.1
		c1.2,0.1,2.9,0.3,4.4,0.9c1.6,0.6,3.1,1.5,4.5,2.7c1.4,1.2,2.7,2.5,3.4,3.2C373.8,169.2,373.8,169.2,373.8,169.1z M396.8,159.8
		c-1.2,0.3-3.1,0.6-5,1.3c-1.9,0.7-4,1.7-5.4,2.6c-1.5,0.9-2.4,1.8-2.8,2.2c-0.4,0.4-0.4,0.4-0.4,0.4c0,0,0,0,2.5,0s7.5,0,11.2-0.2
		c3.7-0.2,5.9-0.5,7.7-0.9c1.8-0.4,3-0.9,4.5-1.7c1.5-0.8,3.2-1.9,4.6-2.9c1.4-0.9,2.5-1.6,3.2-2.1c0.7-0.5,1.1-0.9,2.1-1.3
		c1-0.4,2.7-0.8,3.8-1.1c1-0.2,1.4-0.3,1.6-0.4c0.2-0.1,0.2-0.1-1.1-0.3c-1.3-0.2-4-0.5-6.3-0.8c-2.3-0.3-4.3-0.5-6.3-0.9
		c-2-0.4-3.9-0.9-5.4-1.1c-1.5-0.2-2.5-0.2-3.9-0.2c-1.4,0-3.3,0-4.6,0.1c-1.3,0.1-2.1,0.2-3.3,0.6c-1.2,0.4-2.7,1.1-4.1,2.2
		c-1.4,1.1-2.6,2.5-3.5,3.6c-0.9,1.1-1.5,1.9-1.8,2.4c-0.3,0.5-0.4,0.7-0.4,0.9c0,0.1,0,0.1,1.1-0.5c1.2-0.6,3.5-1.7,5.3-2.4
		c1.8-0.7,3.2-1,4.7-1.2c1.5-0.2,3.1-0.3,4.8-0.3c1.7,0,3.3,0,4.3,0.1c1,0,1.4,0.1,0.4,0.3c-0.9,0.2-3.1,0.5-4.5,0.8
		C398.6,159.2,398,159.5,396.8,159.8z"/>
	<path class="st4" d="M382.1,161.4c0,28.5-45.5,51.6-101.6,51.6c-56.1,0-101.6-23.1-101.6-51.6c0-23.2,30-42.7,71.3-49.3
		c-36.1,7.1-61.6,24.9-61.6,45.7c0,27.1,43.3,49,96.7,49c52.3,0,94.8-21,96.7-47.3C382.1,160.2,382.1,160.8,382.1,161.4z"/>
	<radialGradient id="SVGID_1_" cx="301.4182" cy="176.3333" r="24.7414" gradientUnits="userSpaceOnUse">
		<stop  offset="0" style="stop-color:#DDD436"/>
		<stop  offset="0.1727" style="stop-color:#D9CF33"/>
		<stop  offset="0.3574" style="stop-color:#D3C52E"/>
		<stop  offset="0.5477" style="stop-color:#C8B625"/>
		<stop  offset="0.7419" style="stop-color:#B79F19"/>
		<stop  offset="0.9372" style="stop-color:#A08306"/>
		<stop  offset="1" style="stop-color:#997A00"/>
	</radialGradient>
	<polygon class="st5" points="327.9,187.6 301.4,199.2 275,187.6 275,164.2 301.4,153.4 327.9,164.2 	"/>
	<radialGradient id="SVGID_2_" cx="248.5371" cy="176.3333" r="24.7414" gradientUnits="userSpaceOnUse">
		<stop  offset="0" style="stop-color:#DDD436"/>
		<stop  offset="0.1727" style="stop-color:#D9CF33"/>
		<stop  offset="0.3574" style="stop-color:#D3C52E"/>
		<stop  offset="0.5477" style="stop-color:#C8B625"/>
		<stop  offset="0.7419" style="stop-color:#B79F19"/>
		<stop  offset="0.9372" style="stop-color:#A08306"/>
		<stop  offset="1" style="stop-color:#997A00"/>
	</radialGradient>
	<polygon class="st6" points="275,187.6 248.5,199.2 222.1,187.6 222.1,164.2 248.5,153.4 275,164.2 	"/>
	<radialGradient id="SVGID_3_" cx="274.9777" cy="142.3976" r="24.7414" gradientUnits="userSpaceOnUse">
		<stop  offset="0" style="stop-color:#DDD436"/>
		<stop  offset="0.1727" style="stop-color:#D9CF33"/>
		<stop  offset="0.3574" style="stop-color:#D3C52E"/>
		<stop  offset="0.5477" style="stop-color:#C8B625"/>
		<stop  offset="0.7419" style="stop-color:#B79F19"/>
		<stop  offset="0.9372" style="stop-color:#A08306"/>
		<stop  offset="1" style="stop-color:#997A00"/>
	</radialGradient>
	<polygon class="st7" points="301.4,153.7 275,165.3 248.5,153.7 248.5,130.2 275,119.5 301.4,130.2 	"/>
</g>
</svg>
