<?xml version="1.0" encoding="utf-8"?>
<!-- Generator: Adobe Illustrator 19.0.0, SVG Export Plug-In . SVG Version: 6.00 Build 0)  -->
<svg version="1.1" id="Layer_1" xmlns="http://www.w3.org/2000/svg" xmlns:xlink="http://www.w3.org/1999/xlink" x="0px" y="0px"
	 width="2800px" height="1866px" viewBox="0 0 2800 1866" enable-background="new 0 0 2800 1866" xml:space="preserve">
<rect id="XMLID_11_" y="0" fill="#FBB040" width="933.3" height="933"/>
<rect id="XMLID_27_" x="933.3" y="0" fill="#FFF200" width="933.3" height="933"/>
<rect id="XMLID_28_" x="1866.7" y="0" fill="#8E54A2" width="933.3" height="933"/>
<rect id="XMLID_31_" y="933" fill="#8DC63F" width="933.3" height="933"/>
<rect id="XMLID_30_" x="933.3" y="933" fill="#8E54A2" width="933.3" height="933"/>
<rect id="XMLID_29_" x="1866.7" y="933" fill="#FBB040" width="933.3" height="933"/>
<g id="XMLID_47_">
	<path id="XMLID_226_" fill="#FFFFFF" d="M2336.7,1196.1c-114.7,0-184.2,60-184.2,167v52.8c0,119.4,69,187,194.6,187
		c50.9,0,90.9-11.4,120.9-31.4l-25.2-37.1c-26.6,11.4-61.4,19.5-99,19.5c-93.3,0-140.4-47.6-140.4-138v-52.8
		c0-77.6,46.6-118,133.7-118c83.3,0,126.1,37.1,126.1,107.5v51.4c0,32.4-11.9,50.4-34.7,50.4c-21.4,0-24.7-15.2-24.7-37.6v-114.2
		h-38.1l-3.3,18.1c-8.6-15.7-20.9-25.7-42.8-25.7c-33.8,0-60.9,23.3-60.9,76.6v57.6c0,47.6,24.7,73.8,64.2,73.8
		c31.4,0,46.6-16.7,54.2-32.4c8.1,16.2,20.9,32.4,51.4,32.4c37.6,0,85.7-24.7,85.7-99v-51.4
		C2514.2,1254.1,2449.4,1196.1,2336.7,1196.1z M2352.4,1423.5c0,19-9,30-22.4,30c-12.4,0-18.6-9.5-18.6-26.2v-57.6
		c0-16.2,7.1-25.7,19.5-25.7c13.3,0,21.4,10.9,21.4,29.5V1423.5z"/>
</g>
<g id="XMLID_1_">
	<polygon id="XMLID_246_" fill="#FFFFFF" points="1567.4,1405.7 1262.2,1386.8 1262.2,1386.8 1210.9,1383.6 1097.9,1538.1 
		1235,1509.6 1235,1509.6 1311.5,1493.8 1697,1413.8 	"/>
	<polygon id="XMLID_278_" fill="#FFFFFF" points="1267.5,1310.2 1702.1,1383 1337.7,1212.5 	"/>
	<polygon id="XMLID_343_" fill="#FFFFFF" points="1263.1,1332.3 1271.7,1364.8 1566.3,1383.1 1414.5,1357.7 	"/>
	<polygon id="XMLID_452_" fill="#FFFFFF" points="1643.9,1447.8 1437.4,1490.6 1253,1528.9 1277.6,1586.5 	"/>
</g>
<g id="XMLID_44_">
	<polygon id="XMLID_106_" fill="#FFFFFF" points="669.4,592.1 669.4,400 557.8,479 	"/>
	<polygon id="XMLID_108_" fill="#FFFFFF" points="263.9,400 263.9,592.1 375.5,479 	"/>
	<path id="XMLID_152_" fill="#FFFFFF" d="M473.2,539c-1.9,1.4-4.2,2.1-6.5,2.1s-4.6-0.7-6.5-2.1l-66-46.8L279.6,608.3h374.1
		L539.2,492.2L473.2,539z"/>
	<polygon id="XMLID_26_" fill="#FFFFFF" points="263.9,324.7 263.9,372.4 391.5,462.8 400.8,469.4 410.2,476 466.7,516 523.2,476 
		532.5,469.4 541.8,462.8 669.4,372.4 669.4,324.7 	"/>
</g>
<g id="XMLID_45_">
	<path id="XMLID_133_" fill="#FFFFFF" d="M1237.7,754.2h324.5V646.8h-324.5V754.2z M1363,674.7h73.9c6.2,0,11.3,5,11.3,11.3v29
		c0,6.2-5,11.3-11.3,11.3H1363c-6.2,0-11.3-5-11.3-11.3v-29C1351.8,679.8,1356.8,674.7,1363,674.7z"/>
	<rect id="XMLID_134_" x="1237.7" y="178.7" fill="#FFFFFF" width="324.5" height="37.3"/>
	<rect id="XMLID_139_" x="1237.7" y="238.6" fill="#FFFFFF" width="324.5" height="385.7"/>
	<rect id="XMLID_202_" x="1374.3" y="697.2" fill="#FFFFFF" width="51.4" height="6.5"/>
</g>
<g id="XMLID_46_">
	<path id="XMLID_211_" fill="#FFFFFF" d="M2333.3,223.9c-93.6,0-169.8,76.2-169.8,169.8c0,38.7,30.7,107.3,88.7,198.3
		c32.7,51.3,65.7,96.5,81.1,117.1c15.4-20.6,48.4-65.8,81.1-117.1c58-91,88.7-159.6,88.7-198.3
		C2503.1,300.1,2426.9,223.9,2333.3,223.9z M2333.3,478.8c-47,0-85.2-38.2-85.2-85.2s38.2-85.2,85.2-85.2s85.2,38.2,85.2,85.2
		S2380.3,478.8,2333.3,478.8z"/>
</g>
<g id="XMLID_49_">
	<rect id="XMLID_227_" x="494.6" y="1141.4" fill="#FFFFFF" width="38.4" height="93.8"/>
	<rect id="XMLID_230_" x="494.6" y="1563.8" fill="#FFFFFF" width="38.4" height="93.8"/>
	<path id="XMLID_233_" fill="#FFFFFF" d="M400.4,1196.3v406.4c0,30.3,24.6,54.9,54.9,54.9H472v-88.4c-15.7-4.8-27.1-19.4-27.1-36.6
		v-259c0-17.2,11.4-31.8,27.1-36.6v-95.5h-16.7C425,1141.4,400.4,1166,400.4,1196.3z"/>
</g>
</svg>
