<?xml version="1.0" encoding="UTF-8"?>
<svg width="54px" height="58px" viewBox="0 0 54 58" version="1.1" xmlns="http://www.w3.org/2000/svg" xmlns:xlink="http://www.w3.org/1999/xlink">
    <!-- Generator: Sketch 52.4 (67378) - http://www.bohemiancoding.com/sketch -->
    <title>Group 2</title>
    <desc>Created with Sketch.</desc>
    <g id="DONDE-COMPRAR" stroke="none" stroke-width="1" fill="none" fill-rule="evenodd" stroke-linecap="round" stroke-linejoin="round">
        <g id="01_Donde-comprar" transform="translate(-1033.000000, -723.000000)" stroke="#FFFFFF" stroke-width="2">
            <g id="Group-2" transform="translate(1034.000000, 724.000000)">
                <path d="M31.4401,29.1196 C36.9361,31.2826 40.1301,33.8576 41.9741,36.6516" id="Stroke-1"></path>
                <path d="M10.0993,36.6516 C12.3273,33.0026 16.6723,29.8626 25.1123,27.5176 C33.6053,25.1566 35.9783,18.6846 35.9783,11.8006 C35.9783,11.8006 35.7543,5.1156 32.8563,2.9646 C28.7163,-0.1084 22.2983,0.0586 18.6823,3.2046 C16.0313,5.5106 15.8773,11.8006 15.8773,11.8006 C15.8773,17.1106 17.1423,22.2966 21.5433,25.3336" id="Stroke-3"></path>
                <path d="M15.8774,11.8002 L43.1254,11.8002" id="Stroke-5"></path>
                <polygon id="Stroke-7" points="6.5 41.6225 45.125 41.6225 51.063 47.6845 32.221 47.6845 25.906 41.6225 19.654 47.6845 0.75 47.6845"></polygon>
                <polyline id="Stroke-9" points="6.5208 47.685 6.5208 55.748 25.8728 55.748 25.8728 43.039"></polyline>
                <path d="M25.8731,55.7475 L34.9791,55.7475" id="Stroke-11"></path>
                <polyline id="Stroke-13" points="39.9375 55.7475 45.1045 55.7475 45.1045 47.6845"></polyline>
            </g>
        </g>
    </g>
</svg>