<?xml version="1.0" encoding="UTF-8"?>
<svg width="33px" height="86px" viewBox="0 0 33 86" version="1.1" xmlns="http://www.w3.org/2000/svg" xmlns:xlink="http://www.w3.org/1999/xlink">
    <!-- Generator: Sketch 52.4 (67378) - http://www.bohemiancoding.com/sketch -->
    <title>Group 13</title>
    <desc>Created with Sketch.</desc>
    <g id="RECURSOS" stroke="none" stroke-width="1" fill="none" fill-rule="evenodd" stroke-linecap="round" stroke-linejoin="round">
        <g id="01-Recursos-1" transform="translate(-1350.000000, -350.000000)" stroke="#C3002F" stroke-width="2">
            <g id="Group-13" transform="translate(1351.000000, 350.000000)">
                <g id="Group-5" transform="translate(0.000000, 58.379137)">
                    <polyline id="Stroke-1" points="3 0.534057895 15.1219048 19.4222158 27.064 0.534057895"></polyline>
                    <path d="M0.142857143,26.3289474 L30.3020952,26.3289474" id="Stroke-3"></path>
                </g>
                <path d="M15.2221714,41.5725684 L15.2221714,77.8012" id="Stroke-6"></path>
                <path d="M15.3320381,18.1054632 L15.3320381,24.9738842" id="Stroke-7"></path>
                <g id="Group-12" transform="translate(5.095238, 0.379137)">
                    <path d="M14.8444952,32.1626789 L5.7656381,32.1626789 C4.08944762,32.1626789 0.0224,28.8917842 0.0224,25.1034684 L0.0224,14.3627842 C0.0224,12.6838368 1.39382857,11.3101526 3.07001905,11.3101526 L17.5111619,11.3101526 C19.1873524,11.3101526 20.558781,12.6838368 20.558781,14.3627842 L20.558781,25.1034684 C20.558781,29.4916263 16.5206857,32.1626789 14.8444952,32.1626789 Z" id="Stroke-8"></path>
                    <path d="M3.23215238,11.3106105 L3.23215238,7.47497895 C3.23215238,3.78434737 6.24624762,0.765294737 9.93081905,0.765294737 L10.4092952,0.765294737 C14.0938667,0.765294737 17.1079619,3.78434737 17.1079619,7.47497895 L17.1079619,11.3106105" id="Stroke-10"></path>
                </g>
            </g>
        </g>
    </g>
</svg>