<?xml version="1.0" encoding="UTF-8"?>
<svg width="1371px" height="225px" viewBox="0 0 1371 225" version="1.1" xmlns="http://www.w3.org/2000/svg" xmlns:xlink="http://www.w3.org/1999/xlink">
    <!-- Generator: Sketch 46.2 (44496) - http://www.bohemiancoding.com/sketch -->
    <title>Group 5</title>
    <desc>Created with Sketch.</desc>
    <defs></defs>
    <g id="SIGNIN-/-LOGIN" stroke="none" stroke-width="1" fill="none" fill-rule="evenodd" opacity="0.584805254">
        <g id="001_login" transform="translate(-174.000000, -80.000000)" fill="#FFFFFF">
            <g id="Group-5" transform="translate(174.000000, 80.000000)">
                <polygon id="Fill-1" points="1102.652 11.3130791 1102.80789 97.0863162 1216.02355 96.8775968 1215.86765 11.1043597 1271.61026 11 1272 224.582561 1216.25739 224.686921 1216.0859 130.831025 1102.87025 131.039744 1103.04173 224.89564 1046.38974 225 1046 11.4174388"></polygon>
                <polygon id="Fill-2" points="576.932293 11 577 47.7083913 490.965507 47.8702633 491.288416 224.895566 435.419901 225 435.096992 47.9694751 349.062499 48.1313471 349 11.4229559"></polygon>
                <path d="M789,224.50405 L726.977278,224.618901 L708.172406,179.101093 L602.593055,179.299473 L584.940033,224.885148 L522,225 L620.928848,11.1305133 L689.237234,11 L789,224.50405 Z M655.572968,47.7629781 L616.727981,144.368901 L694.897458,144.222726 L655.572968,47.7629781 Z" id="Fill-3"></path>
                <polygon id="Fill-4" points="1314 11.1045126 1314.39598 225 1371 224.895487 1370.60402 11"></polygon>
                <polygon id="Fill-5" points="168.922709 11.1043597 169.083732 96.8828148 55.8279659 97.0915342 55.672138 11.3130791 0 11.4174388 0.389569915 225 56.0617079 224.900858 55.8954914 131.044962 169.140868 130.836243 169.317474 224.686921 225 224.582561 224.61043 11"></polygon>
                <polygon id="Fill-6" points="270 11.1045126 326.610194 11 327 224.895487 270.389806 225"></polygon>
                <path d="M785.034844,160.024465 C779.707922,145.746927 777.026271,130.567596 777.000286,114.455195 C776.95871,92.1970406 781.448916,70.7572777 791.915668,51.9968335 C802.538331,34.0704186 819.288253,19.7876686 839.670877,11.7444996 C859.071268,4.5301471 880.337381,0.0368148301 901.457979,0.000326052925 C927.261071,-0.0518007716 951.146471,6.15129135 972.35022,15.0180642 C992.769222,23.9161131 1007.81453,41.795614 1012.25277,64.0798314 C1013.16744,68.5001862 1014.01455,73.0143692 1014.97599,77.4347239 L955.621085,77.5441902 C955.610691,72.195978 954.779172,66.811277 952.960223,61.5308297 C948.558366,49.9169732 938.777617,40.9615848 926.403566,36.5672935 C918.446963,34.7845561 910.459178,33.0070313 901.520343,33.0226694 C891.853928,33.0435201 883.003441,34.8523209 874.199728,38.4907733 C860.001531,42.9007026 848.594122,54.5510479 843.33476,69.7460173 C838.865343,83.1426112 836.36039,98.3010917 836.386375,114.345728 C836.41236,126.835315 838.14296,139.361391 841.609357,151.882255 C846.130745,167.019884 857.610912,179.52511 871.751942,185.74384 C881.56907,188.350181 891.287455,191.024287 901.811375,191.003436 C910.75021,190.987798 919.569515,189.246762 927.598876,186.504892 C939.037467,182.897715 947.929529,174.906673 952.28981,164.163335 C955.771798,157.845563 956.728046,149.802394 956.712455,141.832203 L1015.9998,141.717524 C1016.01539,148.864112 1015.11631,155.114118 1013.33894,162.291982 C1008.07438,182.767398 993.928153,200.66775 974.532959,208.710919 C952.388553,218.620228 927.666436,223.94759 901.868542,223.999716 C882.457756,224.036205 863.104138,220.548921 845.262846,215.263261 C817.833094,206.313085 793.926906,186.7551 785.034844,160.024465" id="Fill-7"></path>
            </g>
        </g>
    </g>
</svg>